<?xml version="1.0" encoding="utf-8"?>
<!-- Generator: Adobe Illustrator 20.1.0, SVG Export Plug-In . SVG Version: 6.00 Build 0)  -->
<svg version="1.1" id="Layer_1" xmlns="http://www.w3.org/2000/svg" xmlns:xlink="http://www.w3.org/1999/xlink" x="0px" y="0px"
	 width="48px" height="48px" viewBox="0 0 48 48" style="enable-background:new 0 0 48 48;" xml:space="preserve">
<style type="text/css">
	.st0{fill:#BDF7F7;}
	.st1{fill:#504B83;}
	.st2{fill:#F52314;}
	.st3{fill:#FF4D1C;}
	.st4{fill:#5B3364;}
	.st5{fill:#7CF0EE;}
	.st6{fill:#4663A2;}
	.st7{fill:#3193E0;}
	.st8{fill:#26ABFF;}
</style>
<g>
	<path class="st0" d="M41,17v-5.8l-5.2-5.2c-0.5-0.5-0.5-1.4,0-2c0.5-0.5,1.4-0.5,2,0L43,9.2c0.5,0.5,0.8,1.2,0.8,2v3L41,17z"/>
	<path class="st1" d="M43.8,24.8l-2.8-5v21.5c0,0.8-0.6,1.4-1.4,1.4c-0.8,0-1.4-0.6-1.4-1.4V30.5c0-3.1-2.5-5.6-5.6-5.6l-2.8,1.4
		l2.8,1.4c1.6,0,2.8,1.3,2.8,2.8v10.8c0,2.3,1.9,4.2,4.2,4.2s4.2-1.9,4.2-4.2V24.8z"/>
	<path class="st2" d="M29.7,0.7h-2.8V12l5.6-5.6V3.5C32.6,2,31.3,0.7,29.7,0.7z"/>
	<path class="st3" d="M26.9,0.7H11.4C9.9,0.7,8.6,2,8.6,3.5v2.8l21.1,7V3.5C29.7,2,28.5,0.7,26.9,0.7z"/>
	<path class="st2" d="M32.6,30.5V46H21.3l8.4-15.5H32.6z"/>
	<path class="st3" d="M8.6,30.5h21.1V46H8.6V30.5z"/>
	<path class="st4" d="M32.6,44.5h-2.8v2.8h2.8c0.8,0,1.4-0.6,1.4-1.4S33.3,44.5,32.6,44.5z"/>
	<path class="st1" d="M31.1,46c0-0.8-0.6-1.4-1.4-1.4H8.6c-0.8,0-1.4,0.6-1.4,1.4s0.6,1.4,1.4,1.4h21.1C30.5,47.4,31.1,46.7,31.1,46
		z"/>
	<path class="st5" d="M29.7,6.3l-5.6,12.1l5.6,12.1h2.8V6.3H29.7z"/>
	<path class="st0" d="M8.6,6.3v24.1h21.1V22l-8.4-6.4l8.4-6.4V6.3H8.6z"/>
	<path class="st4" d="M22.7,24.8l-2.1,1.4l2.1,1.4h4.2v-2.8H22.7z"/>
	<path class="st1" d="M18.5,24.8l-2.1,1.4l2.1,1.4h4.2v-2.8H18.5z"/>
	<path class="st6" d="M14.3,24.8h4.2v2.8h-4.2V24.8z"/>
	<path class="st7" d="M26.9,9.2l-5.6,6.4l5.6,6.4h2.8V9.2H26.9z"/>
	<path class="st8" d="M11.4,9.2h15.5V22H11.4V9.2z"/>
	<path class="st2" d="M41,14.2l-1.4,1.4v7.9l1.4,1.4h2.8V14.2L41,14.2z"/>
	<path class="st3" d="M39.6,14.2c-0.8,0-1.4,0.6-1.4,1.4v7.9c0,0.8,0.6,1.4,1.4,1.4H41V14.2L39.6,14.2z"/>
	<path d="M30.4,22V9.2c0-0.4-0.3-0.7-0.7-0.7l0,0H11.4c-0.4,0-0.7,0.3-0.7,0.7l0,0V22c0,0.4,0.3,0.7,0.7,0.7h18.3
		C30.1,22.7,30.4,22.4,30.4,22z M29,21.3H12.1V9.9H29V21.3z M14.3,24.1c-0.4,0-0.7,0.3-0.7,0.7v2.8c0,0.4,0.3,0.7,0.7,0.7h12.7
		c0.4,0,0.7-0.3,0.7-0.7v-2.8c0-0.4-0.3-0.7-0.7-0.7H14.3z M22,25.5v1.4h-2.8v-1.4H22z M15,25.5h2.8v1.4H15V25.5z M26.2,26.9h-2.8
		v-1.4h2.8V26.9z"/>
	<path d="M43.5,8.7l-5.2-5.2c-0.4-0.4-0.9-0.6-1.5-0.6c-0.6,0-1.1,0.2-1.5,0.6c-0.8,0.8-0.8,2.2,0,3l5,5v2h-0.7
		c-1.2,0-2.1,0.9-2.1,2.1v7.9c0,1.2,0.9,2.1,2.1,2.1h0.7v15.7c0,0.4-0.3,0.7-0.7,0.7c-0.4,0-0.7-0.3-0.7-0.7V30.5
		c0-3.5-2.8-6.3-6.3-6.3c-0.4,0-0.7,0.3-0.7,0.7v4.9H9.3V7h22.5v15c0,0.4,0.3,0.7,0.7,0.7s0.7-0.3,0.7-0.7V3.5
		c0-1.9-1.6-3.5-3.5-3.5H11.4C9.5,0,7.9,1.6,7.9,3.5V44c-0.8,0.3-1.4,1.1-1.4,2c0,1.2,0.9,2.1,2.1,2.1h23.9c1.2,0,2.1-0.9,2.1-2.1
		c0-0.9-0.6-1.7-1.4-2V28.5c0.8,0.3,1.4,1.1,1.4,2v10.8c0,2.7,2.2,4.9,4.9,4.9s4.9-2.2,4.9-4.9V11.2C44.5,10.2,44.2,9.3,43.5,8.7z
		 M41.5,10.7l-5.2-5.2c-0.3-0.3-0.3-0.7,0-1c0.1-0.1,0.3-0.2,0.5-0.2c0.2,0,0.4,0.1,0.5,0.2l5.2,5.2c0.4,0.4,0.6,0.9,0.6,1.5v2.3
		h-1.4v-2.3C41.7,11,41.6,10.8,41.5,10.7L41.5,10.7z M38.9,23.4v-7.9c0-0.4,0.3-0.7,0.7-0.7h3.5v9.3h-3.5
		C39.2,24.1,38.9,23.8,38.9,23.4z M31.9,31.2v12.7H9.3V31.2H31.9z M11.4,1.4h18.3c1.2,0,2.1,0.9,2.1,2.1v2.1H9.3V3.5
		C9.3,2.4,10.3,1.4,11.4,1.4z M32.6,46.7H8.6c-0.4,0-0.7-0.3-0.7-0.7s0.3-0.7,0.7-0.7h23.9c0.4,0,0.7,0.3,0.7,0.7
		S32.9,46.7,32.6,46.7z M39.6,44.8c-1.9,0-3.5-1.6-3.5-3.5V30.5c0-1.7-1.2-3.1-2.8-3.4v-1.4c2.4,0.3,4.2,2.4,4.2,4.9v10.8
		c0,1.2,0.9,2.1,2.1,2.1s2.1-0.9,2.1-2.1V25.5h1.4v15.7C43.1,43.2,41.5,44.8,39.6,44.8z"/>
</g>
</svg>
